<svg width="69" height="69" viewBox="0 0 69 69" fill="none" xmlns="http://www.w3.org/2000/svg">
<g clip-path="url(#clip0_744_437)">
<path d="M61.4475 23.9998L57.9526 22.8662C57.827 22.8238 57.7595 22.7537 57.7278 22.6307C57.1841 20.5618 56.3613 18.5763 55.2793 16.7231C55.2171 16.6173 55.2158 16.5233 55.2727 16.4109L56.9447 13.1277C57.4288 12.1793 57.2476 11.0377 56.4949 10.285L53.1588 6.94761C52.4035 6.19891 51.2633 6.02033 50.3201 6.50051L47.0356 8.17252C46.9218 8.23073 46.8279 8.2294 46.7181 8.16459C44.8728 7.08783 42.8873 6.26373 40.8132 5.71477C40.6888 5.6817 40.6187 5.6182 40.5817 5.5018L39.4441 1.99109C39.1081 0.965922 38.1927 0.3032 37.1159 0.3032H32.4068C31.3393 0.3032 30.4014 0.984441 30.076 1.99506L28.9357 5.50047C28.8974 5.61952 28.8312 5.6817 28.7056 5.71477C26.6301 6.2624 24.6433 7.08783 22.7993 8.16591C22.6935 8.22808 22.5995 8.22941 22.4871 8.17252L19.2026 6.50051C18.2555 6.01636 17.1126 6.19759 16.3599 6.95026L13.0265 10.2837C12.2738 11.0364 12.0939 12.1793 12.5767 13.1251L14.2487 16.4096C14.3069 16.5233 14.3043 16.6173 14.2408 16.7271C13.164 18.5724 12.3399 20.5579 11.791 22.632C11.7579 22.7564 11.6931 22.8238 11.574 22.8635L8.0739 23.9985C7.06064 24.3252 6.37939 25.2631 6.37939 26.3306V31.0397C6.37939 32.1178 7.04212 33.0319 8.07258 33.3705L11.5701 34.5041C11.6957 34.5465 11.7632 34.6166 11.7949 34.7396C12.3386 36.8085 13.1614 38.794 14.2434 40.6472C14.3056 40.753 14.3069 40.847 14.25 40.9607L12.5754 44.2452C12.0939 45.1884 12.2738 46.33 13.0251 47.0879L14.3625 48.4253C10.8505 50.0629 8.40989 53.6252 8.40989 57.7484C8.40989 63.4192 13.0225 68.0318 18.6933 68.0318C19.5452 68.0318 20.3733 67.926 21.1656 67.7289C21.626 67.9273 22.1233 68.0318 22.6273 68.0318H35.7852C36.9837 68.0318 38.0512 67.459 38.7284 66.5741C40.829 67.5291 43.1466 68.0318 45.4932 68.0318C54.106 68.0318 61.1128 61.3834 61.1128 53.2112C61.1128 48.6885 58.9249 44.1817 55.2541 40.7067C55.2621 40.6869 55.2713 40.6657 55.2846 40.6432C56.3666 38.7821 57.1894 36.7966 57.7291 34.7396C57.7608 34.6166 57.8283 34.5465 57.946 34.5081L61.4501 33.3718C62.4766 33.0358 63.1407 32.1218 63.1407 31.0411V26.3319C63.1393 25.2618 62.4581 24.3239 61.4475 23.9998ZM10.529 57.7497C10.529 53.2469 14.1918 49.5854 18.6933 49.5854C23.1948 49.5854 26.8576 53.2482 26.8576 57.7497C26.8576 62.2512 23.1948 65.914 18.6933 65.914C14.1918 65.914 10.529 62.2525 10.529 57.7497ZM35.7839 46.863C36.6596 46.863 37.3712 47.5734 37.3712 48.4478C37.3712 49.3235 36.6582 50.0351 35.7839 50.0351H25.4806C24.2689 48.9676 22.8072 48.1806 21.1934 47.7758C21.4474 47.2374 21.9924 46.863 22.626 46.863H35.7839ZM37.3726 53.7416C37.3726 54.6173 36.6596 55.329 35.7852 55.329H28.6871C28.4093 54.1834 27.9397 53.1133 27.314 52.1529H35.7839C36.6596 52.1529 37.3726 52.8659 37.3726 53.7416ZM37.3726 59.0354C37.3726 59.9085 36.6596 60.6201 35.7852 60.6201H28.5667C28.8326 59.7087 28.9768 58.7457 28.9768 57.7497C28.9768 57.6478 28.9715 57.5486 28.9688 57.4481H35.7839C36.6596 57.4481 37.3726 58.1597 37.3726 59.0354ZM35.7839 65.9153H24.9343C26.0534 65.0581 26.9912 63.9774 27.6804 62.7393H35.7839C36.6596 62.7393 37.3712 63.4523 37.3712 64.3266C37.3726 65.2023 36.6596 65.9153 35.7839 65.9153ZM58.9924 53.2125C58.9924 60.2167 52.9366 65.914 45.4919 65.914C43.4005 65.914 41.3383 65.4576 39.4798 64.5885C39.4864 64.5012 39.4904 64.4139 39.4904 64.3253C39.4904 63.2896 39.0631 62.3517 38.3752 61.6784C39.0631 61.0064 39.4904 60.0699 39.4904 59.0341C39.4904 57.9984 39.0618 57.0605 38.3739 56.3872C39.0618 55.7139 39.4904 54.776 39.4904 53.7403C39.4904 52.7045 39.0618 51.7667 38.3739 51.0934C39.0618 50.42 39.4904 49.4822 39.4904 48.4464C39.4904 46.404 37.8276 44.7439 35.7839 44.7439H34.9889C36.7508 42.351 39.1782 40.3033 41.9812 38.872C42.1108 38.8059 42.2299 38.7252 42.3397 38.6366C43.2841 38.9064 44.3649 39.048 45.4919 39.048C46.6149 39.048 47.6944 38.9064 48.6415 38.6366C48.7513 38.7252 48.8703 38.8059 49 38.872C50.6442 39.712 52.1297 40.7385 53.4247 41.8986C53.4895 41.9766 53.5649 42.0454 53.6483 42.101C56.9963 45.1976 58.9924 49.2097 58.9924 53.2125ZM48.0568 36.2449C48.0012 36.3719 47.9602 36.5029 47.9325 36.6338C47.2036 36.827 46.3702 36.9288 45.4919 36.9288C44.6228 36.9288 43.7723 36.8243 43.0474 36.6325C43.0196 36.5029 42.9786 36.3746 42.9243 36.2476L40.96 31.7038C40.8132 31.3651 40.8925 30.9895 41.1703 30.7421C41.292 30.631 41.4494 30.6191 41.5949 30.713L42.1095 31.0384C42.931 31.5662 43.9522 31.5662 44.7657 31.0437L45.3014 30.7051C45.4258 30.6257 45.5541 30.6257 45.6824 30.7077L46.2036 31.0384C47.0237 31.5649 48.0449 31.5662 48.8677 31.0411L49.3875 30.709C49.5291 30.6178 49.6891 30.631 49.8174 30.7474C50.086 30.9895 50.1653 31.3638 50.0185 31.7025L48.0568 36.2449ZM44.2379 28.877C44.2141 28.8915 44.1903 28.9047 44.1664 28.9193L43.6307 29.2579C43.5064 29.3373 43.382 29.3373 43.2511 29.254L42.7352 28.9272C41.7801 28.3148 40.5777 28.4166 39.7509 29.1719C38.8051 30.0172 38.5102 31.3731 39.0155 32.5451L40.5817 36.1669C38.9229 37.4606 36.8831 38.167 34.7614 38.167C29.5337 38.167 25.2809 33.9142 25.2809 28.6865C25.2809 23.4588 29.5337 19.206 34.7614 19.206C39.989 19.206 44.2418 23.4588 44.2418 28.6865C44.2418 28.7486 44.2392 28.8135 44.2379 28.877ZM61.0215 31.0411C61.0215 31.1971 60.9395 31.3096 60.794 31.3572L57.2833 32.4961C56.4777 32.7647 55.8931 33.3877 55.6788 34.2025C55.2131 35.9738 54.5147 37.6868 53.6086 39.298C52.512 38.4474 51.3148 37.6802 50.0304 37.0201L51.9657 32.5451C52.471 31.3757 52.1773 30.0212 51.2394 29.1772C50.4008 28.4179 49.1984 28.3174 48.2486 28.9259L47.7314 29.2566C47.6044 29.3386 47.4761 29.3386 47.3465 29.2553L46.8226 28.9219C46.6745 28.8267 46.5184 28.75 46.3596 28.6891C46.3596 28.6878 46.3596 28.6865 46.3596 28.6865C46.3596 22.2907 41.1558 17.0869 34.76 17.0869C28.3643 17.0869 23.1604 22.2907 23.1604 28.6865C23.1604 35.0822 28.3643 40.2861 34.76 40.2861C35.2865 40.2861 35.809 40.2491 36.3236 40.1803C34.7905 41.5335 33.469 43.0772 32.4306 44.7452H22.626C20.9209 44.7452 19.4817 45.9053 19.0531 47.4768C18.9327 47.4729 18.8137 47.4676 18.692 47.4676C17.979 47.4676 17.2819 47.5403 16.6099 47.6792L14.5252 45.5945C14.4154 45.4847 14.3929 45.3445 14.4617 45.2082L16.1337 41.9224C16.5213 41.1618 16.4962 40.3046 16.0676 39.5771C15.0847 37.8932 14.336 36.0849 13.8413 34.2025C13.627 33.3864 13.0423 32.7633 12.2288 32.4922L8.72736 31.3572C8.57789 31.3083 8.49587 31.1958 8.49587 31.0397V26.3306C8.49587 26.1758 8.57789 26.0607 8.72339 26.0144L12.2315 24.8768C13.0384 24.6096 13.6244 23.9879 13.8373 23.1704C14.336 21.2828 15.0874 19.4745 16.0662 17.7972C16.4975 17.0657 16.5226 16.2098 16.135 15.4479L14.4617 12.1621C14.3929 12.0272 14.4154 11.8883 14.5225 11.7798L17.856 8.44634C17.9631 8.3392 18.1034 8.31671 18.2383 8.38682L21.5228 10.0588C22.2834 10.4464 23.1406 10.4213 23.8694 9.99137C25.5454 9.01118 27.3537 8.26115 29.2426 7.76246C30.0654 7.54684 30.6871 6.96084 30.949 6.15394L32.0893 2.64588C32.1356 2.50169 32.2507 2.41968 32.4054 2.41968H37.1146C37.2707 2.41968 37.3831 2.50169 37.4308 2.6472L38.567 6.15394C38.829 6.95952 39.452 7.54684 40.2748 7.76113C42.1624 8.25983 43.9707 9.01118 45.648 9.99005C46.3795 10.4213 47.2353 10.4464 47.9973 10.0588L51.2831 8.3855C51.418 8.31671 51.5582 8.34052 51.6654 8.44634L54.9988 11.7798C55.106 11.8869 55.1285 12.0258 55.0584 12.1621L53.3864 15.4479C52.9988 16.2085 53.0239 17.0657 53.4525 17.7932C54.4353 19.4772 55.184 21.2854 55.6788 23.1678C55.8931 23.9839 56.4777 24.607 57.2912 24.8781L60.7967 26.0157C60.9408 26.062 61.0202 26.1745 61.0202 26.3306V31.0411H61.0215ZM49.1746 52.7654C49.9801 53.5471 50.3677 54.571 50.2632 55.6451C50.1574 56.7496 49.5198 57.7841 48.5608 58.4111C47.9642 58.8026 47.2737 59.0513 46.5501 59.1505V60.6413C46.5501 61.226 46.0766 61.7009 45.4906 61.7009C44.9046 61.7009 44.431 61.2273 44.431 60.6413V59.0129C44.3754 58.9984 44.3199 58.9825 44.2643 58.9653C42.7048 58.4878 41.4679 57.3211 40.7827 55.6808C40.5565 55.1411 40.8118 54.5207 41.3515 54.2945C41.8912 54.0696 42.5116 54.3236 42.7378 54.8633C43.3 56.2073 44.2154 56.7351 44.8847 56.9401C45.7498 57.2047 46.7142 57.0896 47.3994 56.6398C47.8266 56.3607 48.1084 55.9136 48.1547 55.4427C48.1838 55.1451 48.1269 54.7019 47.697 54.2839C47.3478 53.944 46.5845 53.7628 45.7763 53.5723C44.5699 53.2866 43.2021 52.9638 42.1875 51.9241C41.3383 51.0537 40.9957 49.7454 41.2933 48.5086C41.5989 47.2387 42.5063 46.2625 43.7842 45.8313C43.9958 45.7598 44.2127 45.7016 44.4323 45.6567V44.0944C44.4323 43.5098 44.9059 43.0349 45.4919 43.0349C46.0779 43.0349 46.5515 43.5084 46.5515 44.0944V45.613C47.1097 45.7069 47.6441 45.8829 48.1163 46.1408C49.1269 46.6924 49.8042 47.5641 50.0754 48.6621C50.2156 49.2295 49.869 49.8036 49.3015 49.9452C48.7327 50.0854 48.16 49.7388 48.0184 49.1713C47.8914 48.6581 47.5819 48.2639 47.0991 48.0007C46.6507 47.7559 46.0832 47.6382 45.5078 47.6541C45.5025 47.6541 45.4972 47.6554 45.4906 47.6554C45.4879 47.6554 45.4866 47.6554 45.484 47.6554C45.1374 47.6673 44.7895 47.7282 44.4628 47.8393C43.6757 48.1052 43.4283 48.6845 43.3516 49.006C43.2246 49.5325 43.3622 50.0986 43.7035 50.4465C44.2881 51.0457 45.2921 51.2825 46.2631 51.5127C47.3174 51.76 48.4073 52.0167 49.1746 52.7654ZM21.3627 57.747C21.9725 58.3436 22.2636 59.1188 22.1842 59.9336C22.1035 60.7657 21.626 61.5435 20.905 62.017C20.5558 62.2459 20.1643 62.4059 19.7516 62.4985V63.1705C19.7516 63.7552 19.278 64.2301 18.692 64.2301C18.106 64.2301 17.6324 63.7565 17.6324 63.1705V62.3729C16.5755 62.0011 15.7395 61.1863 15.2699 60.0619C15.045 59.5222 15.299 58.9018 15.8387 58.677C16.3784 58.4521 16.9988 58.7061 17.2237 59.2458C17.4711 59.8384 17.8772 60.2365 18.3997 60.3966C18.8587 60.5381 19.3865 60.4786 19.7423 60.2445C19.9301 60.1214 20.0545 59.9283 20.0743 59.7286C20.0915 59.5579 20.028 59.4058 19.8825 59.263C19.7291 59.1148 19.2132 58.9931 18.7978 58.8939C17.9989 58.7047 17.0041 58.4706 16.2633 57.71C15.6218 57.0526 15.3612 56.0658 15.5834 55.1345C15.8123 54.1781 16.4948 53.4426 17.4539 53.1172C17.5121 53.0974 17.5716 53.0789 17.6311 53.063V52.3249C17.6311 51.7402 18.1047 51.2653 18.6907 51.2653C19.2767 51.2653 19.7502 51.7389 19.7502 52.3249V53.0246C20.0479 53.0987 20.3309 53.2059 20.5889 53.3474C21.3416 53.7601 21.8469 54.4123 22.0479 55.2337C22.1868 55.8025 21.8403 56.3753 21.2715 56.5155C20.7027 56.6557 20.1299 56.3065 19.9897 55.739C19.9315 55.5009 19.7979 55.3316 19.5703 55.2059C19.1867 54.9956 18.61 54.9625 18.1351 55.1252C17.8679 55.2165 17.7025 55.3858 17.6443 55.6305C17.5914 55.8528 17.6457 56.0949 17.7806 56.2324C18.0914 56.5512 18.6708 56.6888 19.2846 56.833C20.0241 57.0089 20.7873 57.1888 21.3627 57.747Z" fill="#FEFEFE"/>
</g>
<defs>
<clipPath id="clip0_744_437">
<rect width="67.7273" height="67.7273" fill="white" transform="translate(0.89502 0.30452)"/>
</clipPath>
</defs>
</svg>
