<svg width="32" height="32" viewBox="0 0 32 32" fill="none" xmlns="http://www.w3.org/2000/svg">
<rect width="32" height="32" rx="4" fill="white"/>
<path d="M16.3208 5.76855C18.2891 5.76855 19.9455 6.43114 21.2902 7.7563C22.6348 9.08146 23.3072 10.7087 23.3072 12.638C23.3072 14.5672 22.6348 16.1945 21.2902 17.5196C19.9455 18.8448 18.2891 19.5074 16.3208 19.5074H12.7254V26.2306H8.69141V5.76855H16.3208ZM16.3208 15.7365C17.1783 15.7365 17.8896 15.4442 18.4547 14.8596C19.0199 14.2554 19.3024 13.5149 19.3024 12.638C19.3024 11.7415 19.0199 11.001 18.4547 10.4164C17.8896 9.83174 17.1783 9.53942 16.3208 9.53942H12.7254V15.7365H16.3208Z" fill="black"/>
</svg>
