<svg width="68" height="69" viewBox="0 0 68 69" fill="none" xmlns="http://www.w3.org/2000/svg">
<g clip-path="url(#clip0_77_603)">
<path d="M56.8102 31.3514C53.9498 31.3514 51.6226 33.6786 51.6226 36.539C51.8834 43.4117 61.7381 43.4098 61.9979 36.539C61.9979 33.6785 59.6706 31.3514 56.8102 31.3514ZM56.8102 39.7567C55.0359 39.7567 53.5926 38.3132 53.5926 36.539C53.7542 32.2762 59.8667 32.2774 60.0279 36.539C60.0279 38.3132 58.5844 39.7567 56.8102 39.7567Z" fill="#FEFEFE"/>
<path d="M66.1547 33.7961L64.3576 33.4126L65.3571 31.8709C65.7517 31.2619 65.6658 30.4474 65.1526 29.9339L63.4151 28.1964C62.9018 27.683 62.0873 27.5971 61.4778 27.9919L59.9362 28.9913L59.5526 27.1944C59.4013 26.4844 58.7644 25.969 58.0384 25.969H55.5813C54.8552 25.969 54.2183 26.4843 54.0671 27.1942L53.6834 28.9913L52.1418 27.992C51.5325 27.5971 50.7181 27.683 50.2047 28.1964L48.4669 29.9342C47.9539 30.4474 47.8679 31.2619 48.2627 31.8712L49.2621 33.4128L47.4648 33.7964C46.755 33.948 46.2397 34.5848 46.2397 35.3107V37.7678C46.2397 38.4936 46.7551 39.1305 47.465 39.282L49.2621 39.6657L48.2625 41.2074C47.8679 41.8164 47.9538 42.6309 48.467 43.1444L50.2047 44.8819C50.7178 45.3955 51.5326 45.4815 52.1418 45.0864L53.6834 44.087L54.0671 45.8839C54.2183 46.594 54.8553 47.1093 55.5813 47.1093H58.0384C58.7644 47.1093 59.4013 46.594 59.5526 45.8841L59.9362 44.087L61.4778 45.0863C62.0873 45.4813 62.9017 45.3955 63.4149 44.8819L65.1526 43.1441C65.6657 42.6309 65.7517 41.8164 65.3569 41.2072L64.3576 39.6655L66.1547 39.282C66.8645 39.1306 67.3799 38.4938 67.3799 37.7678V35.3107C67.3799 34.5847 66.8646 33.9478 66.1547 33.7961ZM65.4099 37.4263L63.4795 37.8383C63.0563 37.9287 62.7151 38.2263 62.5664 38.6346C62.5049 38.8036 62.4362 38.9701 62.3623 39.1292C62.179 39.523 62.2102 39.9747 62.4454 40.3368L63.5185 41.9921L62.2633 43.2472L60.6076 42.174C60.2449 41.9392 59.7937 41.9082 59.4 42.0912C59.2425 42.1645 59.0761 42.2332 58.9051 42.2955C58.4972 42.444 58.1997 42.7852 58.1092 43.2084L57.6971 45.1388H55.9224L55.5103 43.2082C55.4199 42.7853 55.1224 42.4441 54.7141 42.2955C54.5439 42.2335 54.3775 42.1648 54.2193 42.0911C53.8258 41.908 53.3745 41.9393 53.0115 42.1743L51.3562 43.2474L50.1011 41.9922L51.1744 40.3366C51.4093 39.9739 51.4403 39.5226 51.2572 39.129C51.0096 38.5329 50.8598 37.9945 50.1399 37.8383L48.2096 37.4263V35.6515L50.1399 35.2395C50.5632 35.1491 50.9044 34.8515 51.0528 34.4436C51.115 34.2731 51.1838 34.1066 51.2572 33.9487C51.4405 33.5551 51.4094 33.1036 51.1742 32.7409L50.1011 31.0856L51.3562 29.8304L53.0119 30.9037C53.3744 31.1385 53.8258 31.1696 54.2193 30.9865C54.8156 30.7388 55.3539 30.5891 55.5101 29.8693L55.9223 27.939H57.697L58.1091 29.8695C58.1994 30.2924 58.4969 30.6336 58.905 30.7822C59.076 30.8446 59.2424 30.9132 59.4001 30.9867C59.7936 31.1697 60.2449 31.1385 60.6078 30.9035L62.2631 29.8304L63.5184 31.0856L62.446 32.74C62.2101 33.1028 62.1788 33.5547 62.3619 33.9482C62.4361 34.1079 62.5049 34.2745 62.5664 34.4436C62.7149 34.8517 63.0561 35.1493 63.4794 35.2396L65.4099 35.6515V37.4263Z" fill="#FEFEFE"/>
<path d="M57.5382 35.554H56.2249C54.9206 35.5992 54.9217 37.4792 56.2249 37.524H57.5382C58.8425 37.4788 58.8416 35.5987 57.5382 35.554Z" fill="#FEFEFE"/>
<path d="M9.65939 22.7174C10.9601 23.9151 11.7062 25.6435 11.7062 27.4596V32.58C11.7062 33.7529 12.6605 34.7071 13.8333 34.7071H19.5048C20.6777 34.7071 21.6318 33.7528 21.6318 32.58V27.4592C21.6318 25.6489 22.3842 23.9148 23.6958 22.7017C25.8225 20.7348 27.0146 17.9535 26.9663 15.071C26.9446 13.768 26.6747 12.4999 26.1642 11.3018C25.9511 10.8015 25.3726 10.5686 24.8719 10.7819C24.3714 10.9952 24.1387 11.5737 24.352 12.0742C24.7623 13.0371 24.9791 14.0564 24.9966 15.1039C25.0354 17.4267 24.0738 19.6688 22.3581 21.2554C20.6446 22.8402 19.6618 25.1015 19.6618 27.4592V27.9874H17.7142V21.7653C17.7142 20.6995 17.3189 19.6786 16.601 18.8908L14.0475 16.0885C13.6611 15.6645 13.4483 15.1148 13.4483 14.5409V13.1884H18.7019V15.5853C18.7471 16.8895 20.6271 16.8885 20.6719 15.5853V13.0962C20.6719 12.0608 19.8295 11.2185 18.794 11.2185H13.2674C12.2809 11.2185 11.4784 12.021 11.4784 13.0076V14.5409C11.4784 15.6069 11.8737 16.6278 12.5915 17.4154L15.1449 20.2176C15.5313 20.6418 15.7442 21.1915 15.7442 21.7654V27.9875H13.6762V27.4596C13.6762 25.0944 12.6986 22.8377 10.9937 21.2682C7.57895 18.2425 7.46049 12.5524 10.7853 9.41709C12.3886 7.83558 14.5207 6.97732 16.7868 7.01252C18.6284 7.0376 20.37 7.65237 21.823 8.79037C22.2512 9.12566 22.8706 9.05054 23.2057 8.62226C23.5413 8.19399 23.4659 7.57488 23.0376 7.23946C21.2423 5.83341 19.0901 5.07391 16.8137 5.04279C7.44853 4.93365 2.77716 16.3059 9.65939 22.7174ZM19.6618 29.9574V32.5799C19.6618 32.6665 19.5913 32.7369 19.5048 32.7369H13.8333C13.7467 32.7369 13.6762 32.6664 13.6762 32.5799V29.9574H19.6618Z" fill="#FEFEFE"/>
<path d="M16.6691 3.73248C17.2132 3.73248 17.6541 3.29147 17.6541 2.74748V1.76249C17.6089 0.458223 15.7289 0.459273 15.6841 1.76249V2.74748C15.6841 3.29147 16.125 3.73248 16.6691 3.73248Z" fill="#FEFEFE"/>
<path d="M8.53527 5.19081C8.80883 5.66623 9.41809 5.82094 9.88077 5.55131C10.3519 5.27932 10.5133 4.6769 10.2413 4.20581L9.74878 3.3528C9.47666 2.88171 8.87424 2.7203 8.40328 2.99229C7.93219 3.26428 7.77078 3.86671 8.04277 4.3378L8.53527 5.19081Z" fill="#FEFEFE"/>
<path d="M23.4575 29.0666C22.9864 29.3386 22.825 29.941 23.097 30.4121L23.5895 31.2651C23.863 31.7405 24.4723 31.8952 24.935 31.6256C25.4061 31.3536 25.5675 30.7512 25.2955 30.2801L24.803 29.4271C24.5309 28.9559 23.9283 28.7946 23.4575 29.0666Z" fill="#FEFEFE"/>
<path d="M2.71285 10.3887L3.56586 10.8812C4.02867 11.1508 4.63793 10.9961 4.91136 10.5207C5.18335 10.0496 5.02194 9.44716 4.55085 9.17517L3.69785 8.68268C3.22649 8.41069 2.6242 8.57196 2.35234 9.04318C2.08035 9.51441 2.24176 10.1167 2.71285 10.3887Z" fill="#FEFEFE"/>
<path d="M28.7871 25.4427L29.6401 25.9352C30.103 26.2048 30.7122 26.0501 30.9856 25.5747C31.2576 25.1036 31.0962 24.5012 30.6251 24.2292L29.7721 23.7367C29.3008 23.4646 28.6985 23.626 28.4266 24.0972C28.1545 24.5684 28.316 25.1707 28.7871 25.4427Z" fill="#FEFEFE"/>
<path d="M1.12234 18.294H2.10733C3.4116 18.2488 3.41055 16.3688 2.10733 16.324H1.12234C-0.181929 16.3692 -0.180879 18.2492 1.12234 18.294Z" fill="#FEFEFE"/>
<path d="M30.2456 17.309C30.2456 17.853 30.6865 18.294 31.2306 18.294H32.2156C33.5199 18.2488 33.5188 16.3688 32.2156 16.324H31.2306C30.6865 16.324 30.2456 16.765 30.2456 17.309Z" fill="#FEFEFE"/>
<path d="M3.56586 23.7367L2.71285 24.2292C2.24176 24.5012 2.08035 25.1036 2.35234 25.5747C2.62591 26.0501 3.23516 26.2048 3.69785 25.9352L4.55085 25.4427C5.02194 25.1707 5.18335 24.5683 4.91136 24.0972C4.63937 23.626 4.03668 23.4646 3.56586 23.7367Z" fill="#FEFEFE"/>
<path d="M29.2805 11.0134C29.4475 11.0134 29.617 10.9709 29.7721 10.8813L30.6251 10.3888C31.0962 10.1168 31.2576 9.5144 30.9856 9.04331C30.7136 8.57208 30.1109 8.41081 29.6401 8.6828L28.7871 9.1753C28.316 9.44729 28.1546 10.0497 28.4266 10.5208C28.6091 10.8367 28.9402 11.0134 29.2805 11.0134Z" fill="#FEFEFE"/>
<path d="M8.53527 29.4271L8.04277 30.2801C7.77078 30.7512 7.93219 31.3536 8.40328 31.6256C8.8661 31.8952 9.47535 31.7405 9.74878 31.2651L10.2413 30.4121C10.5133 29.941 10.3519 29.3386 9.88077 29.0666C9.40955 28.7944 8.80726 28.9559 8.53527 29.4271Z" fill="#FEFEFE"/>
<path d="M23.4574 5.55131C23.9203 5.82094 24.5295 5.66623 24.803 5.1908L25.2955 4.3378C25.5674 3.86671 25.406 3.26428 24.9349 2.99229C24.4635 2.72017 23.8613 2.88171 23.5894 3.3528L23.0969 4.20581C22.825 4.67703 22.9865 5.27932 23.4574 5.55131Z" fill="#FEFEFE"/>
<path d="M41.7678 47.1002C41.5065 35.8487 25.9294 34.009 22.962 44.7275H2.17335C1.05085 44.7275 0.137695 45.6407 0.137695 46.7632V65.9842C0.137695 67.1067 1.05085 68.0199 2.17335 68.0199H5.30341C6.60768 67.9747 6.60662 66.0947 5.30341 66.0499H2.17335C2.13724 66.0499 2.10769 66.0205 2.10769 65.9842V46.7632C2.10769 46.7269 2.13724 46.6975 2.17335 46.6975H22.6737C22.6416 47.3559 22.6883 48.0305 22.7943 48.6675H9.73051C8.99793 48.6675 8.30935 48.9527 7.79138 49.4707L4.88078 52.3814C4.36294 52.8993 4.07768 53.5879 4.07768 54.3203V58.4271C4.07768 59.1594 4.36294 59.848 4.88078 60.3661L7.79138 63.2767C8.30922 63.7947 8.99793 64.0799 9.73051 64.0799H26.9683C27.7009 64.0799 28.3895 63.7947 28.9075 63.2767L31.8179 60.3661C32.3359 59.8482 32.6212 59.1595 32.6212 58.427V56.6419C33.298 56.6134 33.9575 56.5158 34.5912 56.3531V65.9841C34.5912 66.0204 34.5616 66.0498 34.5255 66.0498H9.85632C8.55206 66.0949 8.55311 67.975 9.85632 68.0198H34.5255C35.648 68.0198 36.5611 67.1066 36.5611 65.9841V55.6022C39.6488 54.0177 41.7678 50.8027 41.7678 47.1002ZM30.4249 58.973L27.5143 61.8838C27.3685 62.0295 27.1745 62.1099 26.9683 62.1099H9.73051C9.52431 62.1099 9.33034 62.0297 9.18456 61.8838L6.27396 58.9732C6.12818 58.8273 6.04767 58.6333 6.04767 58.4271V54.3203C6.04767 54.1141 6.12805 53.9201 6.27396 53.7742L9.18456 50.8635C9.33034 50.7177 9.52431 50.6373 9.73051 50.6373H23.3454C24.5674 53.6908 27.3203 55.9705 30.6512 56.5218V58.427C30.6512 58.6333 30.5709 58.8273 30.4249 58.973ZM32.2157 54.6823C28.0349 54.6823 24.6336 51.281 24.6336 47.1002C25.0148 37.0553 39.4183 37.0581 39.798 47.1003C39.7978 51.281 36.3966 54.6823 32.2157 54.6823Z" fill="#FEFEFE"/>
<path d="M32.2156 41.488C29.1212 41.488 26.6035 44.0056 26.6035 47.1002C26.8856 54.5353 37.5468 54.5332 37.8279 47.1C37.8277 44.0056 35.3101 41.488 32.2156 41.488ZM32.2156 50.7423C30.2073 50.7423 28.5735 49.1084 28.5735 47.1002C28.7566 42.275 35.6755 42.2763 35.8579 47.1002C35.8578 49.1084 34.224 50.7423 32.2156 50.7423Z" fill="#FEFEFE"/>
<path d="M17.9048 58.4931H11.6009C10.2966 58.5383 10.2976 60.4183 11.6009 60.4631H17.9048C19.2091 60.4179 19.2082 58.5378 17.9048 58.4931Z" fill="#FEFEFE"/>
<path d="M11.6009 57.1462H14.3863C15.6906 57.101 15.6895 55.221 14.3863 55.1762H11.6009C10.2966 55.2214 10.2976 57.1015 11.6009 57.1462Z" fill="#FEFEFE"/>
<path d="M38.3552 13.8451H55.8965V19.6802L54.0338 18.1632C53.6117 17.8195 52.9914 17.8832 52.6479 18.3049C52.3045 18.7267 52.3678 19.3472 52.7896 19.6907L56.2593 22.5166C56.6215 22.8116 57.1412 22.8116 57.5034 22.5166L60.9731 19.6907C61.395 19.3472 61.4583 18.7267 61.1148 18.3049C60.7717 17.8833 60.1511 17.8195 59.729 18.1632L57.8663 19.6802V12.8601C57.8663 12.3161 57.4254 11.8751 56.8813 11.8751H38.3552C37.051 11.9203 37.052 13.8003 38.3552 13.8451Z" fill="#FEFEFE"/>
<path d="M56.81 48.6675C56.2658 48.6675 55.825 49.1085 55.825 49.6525V56.8348H43.8477L45.3647 54.9721C45.7081 54.5503 45.6448 53.9299 45.223 53.5863C44.801 53.2426 44.1805 53.3064 43.8372 53.728L41.0113 57.1977C40.7163 57.5599 40.7163 58.0796 41.0113 58.4418L43.8372 61.9113C44.0318 62.1504 44.3155 62.2744 44.6015 62.2744C45.4076 62.2935 45.8938 61.2882 45.3647 60.6674L43.8477 58.8048H56.8098C57.3539 58.8048 57.7948 58.3638 57.7948 57.8198V49.6525C57.7949 49.1085 57.3539 48.6675 56.81 48.6675Z" fill="#FEFEFE"/>
</g>
<defs>
<clipPath id="clip0_77_603">
<rect width="67.2424" height="67.2424" fill="white" transform="translate(0.137695 0.781021)"/>
</clipPath>
</defs>
</svg>
