<svg width="61" height="61" viewBox="0 0 61 61" fill="none" xmlns="http://www.w3.org/2000/svg">
<g clip-path="url(#clip0_744_430)">
<path d="M12.3503 43.7468H1.62474C1.37487 43.7468 1.13524 43.8461 0.958557 44.0227C0.781876 44.1994 0.682617 44.439 0.682617 44.6889V59.8015C0.682617 60.0514 0.781876 60.291 0.958557 60.4677C1.13524 60.6444 1.37487 60.7437 1.62474 60.7437H12.3503C12.6001 60.7437 12.8398 60.6444 13.0165 60.4677C13.1931 60.291 13.2924 60.0514 13.2924 59.8015V44.6889C13.2924 44.439 13.1931 44.1994 13.0165 44.0227C12.8398 43.8461 12.6001 43.7468 12.3503 43.7468ZM11.4082 58.8594H2.56685V45.631H11.4082V58.8594ZM28.1975 26.232H17.4721C17.2222 26.232 16.9826 26.3313 16.8059 26.5079C16.6292 26.6846 16.53 26.9243 16.53 27.1741V59.8015C16.53 60.0514 16.6292 60.291 16.8059 60.4677C16.9826 60.6444 17.2222 60.7437 17.4721 60.7437H28.1975C28.4474 60.7437 28.687 60.6444 28.8637 60.4677C29.0404 60.291 29.1396 60.0514 29.1396 59.8015V27.1741C29.1396 26.9243 29.0404 26.6846 28.8637 26.5079C28.687 26.3313 28.4474 26.232 28.1975 26.232ZM27.2554 58.8594H18.4142V28.1162H27.2554V58.8594ZM44.0449 31.7812H33.3193C33.0695 31.7812 32.8299 31.8804 32.6532 32.0571C32.4765 32.2338 32.3772 32.4734 32.3772 32.7233V59.8015C32.3772 60.0514 32.4765 60.291 32.6532 60.4677C32.8299 60.6444 33.0695 60.7437 33.3193 60.7437H44.0449C44.2948 60.7437 44.5344 60.6444 44.7111 60.4677C44.8877 60.291 44.987 60.0514 44.987 59.8015V32.7233C44.987 32.4734 44.8877 32.2338 44.7111 32.0571C44.5344 31.8804 44.2948 31.7812 44.0449 31.7812ZM43.1028 58.8594H34.2615V33.6654H43.1028V58.8594ZM59.8921 14.6364H49.1666C48.9167 14.6364 48.6771 14.7357 48.5004 14.9123C48.3237 15.089 48.2245 15.3287 48.2245 15.5785V59.8015C48.2245 60.0514 48.3237 60.291 48.5004 60.4677C48.6771 60.6444 48.9167 60.7437 49.1666 60.7437H59.8921C60.142 60.7437 60.3816 60.6444 60.5583 60.4677C60.735 60.291 60.8343 60.0514 60.8343 59.8015V15.5785C60.8343 15.3287 60.735 15.089 60.5583 14.9123C60.3816 14.7357 60.142 14.6364 59.8921 14.6364ZM58.95 58.8594H50.1087V16.5206H58.95V58.8594ZM6.98751 29.221C5.73988 29.2188 4.52838 29.6397 3.55084 30.415C2.5733 31.1902 1.88747 32.274 1.60535 33.4893C1.32322 34.7046 1.46147 35.9796 1.99752 37.1062C2.53356 38.2328 3.43573 39.1444 4.55671 39.6921C5.67769 40.2398 6.95125 40.3913 8.16942 40.1218C9.38759 39.8523 10.4784 39.1777 11.2637 38.2083C12.0491 37.2388 12.4825 36.0318 12.4933 34.7842C12.5041 33.5366 12.0916 32.3222 11.3231 31.3393L19.8958 21.8646C20.5279 22.265 21.2351 22.5322 21.974 22.6497C22.713 22.7673 23.4682 22.7327 24.1933 22.5482C24.9184 22.3637 25.5983 22.033 26.1911 21.5765C26.784 21.12 27.2774 20.5473 27.6412 19.8934L33.2515 21.8577C33.1007 22.7586 33.1763 23.6828 33.4715 24.5472C33.7668 25.4115 34.2725 26.1888 34.943 26.8091C35.6135 27.4293 36.4277 27.873 37.3124 28.1002C38.1971 28.3274 39.1244 28.3309 40.0108 28.1105C40.8972 27.8901 41.7148 27.4526 42.39 26.8375C43.0652 26.2224 43.5768 25.4489 43.8787 24.5869C44.1806 23.7248 44.2632 22.8012 44.1192 21.8992C43.9753 20.9972 43.6091 20.1453 43.0539 19.42L51.3496 10.4446C52.4759 11.2425 53.8605 11.589 55.2299 11.4155C56.5993 11.242 57.8538 10.5611 58.7455 9.50748C59.6372 8.45383 60.1012 7.10403 60.0458 5.72481C59.9905 4.3456 59.4198 3.03731 58.4466 2.05848C57.4734 1.07965 56.1684 0.501479 54.7895 0.43823C53.4106 0.374981 52.0582 0.83125 50.9995 1.71688C49.9407 2.6025 49.2527 3.85305 49.0713 5.22141C48.8899 6.58977 49.2284 7.97638 50.0199 9.10724L41.6704 18.1405C41.0385 17.7306 40.3291 17.455 39.5862 17.3307C38.8433 17.2064 38.0828 17.2361 37.3519 17.418C36.621 17.5999 35.9353 17.93 35.3373 18.388C34.7393 18.8459 34.2418 19.4219 33.8757 20.0801L28.2654 18.1155C28.4166 17.2122 28.3401 16.2854 28.0428 15.4191C27.7455 14.5528 27.2369 13.7744 26.5628 13.1543C25.8888 12.5342 25.0707 12.092 24.1827 11.8678C23.2947 11.6436 22.3648 11.6444 21.4772 11.8702C20.5896 12.0961 19.7723 12.5398 19.0994 13.1611C18.4265 13.7825 17.9193 14.5619 17.6236 15.4287C17.3279 16.2956 17.2531 17.2225 17.406 18.1255C17.5589 19.0286 17.9347 19.8792 18.4992 20.6004L9.92597 30.0751C9.04765 29.5167 8.0283 29.2204 6.98751 29.221ZM54.5295 2.33235C55.2458 2.3323 55.9461 2.54468 56.5417 2.94261C57.1373 3.34054 57.6015 3.90616 57.8757 4.56795C58.1499 5.22973 58.2216 5.95795 58.0819 6.66051C57.9422 7.36307 57.5973 8.00843 57.0908 8.51496C56.5843 9.02149 55.9389 9.36645 55.2364 9.50622C54.5338 9.64598 53.8056 9.57427 53.1438 9.30016C52.482 9.02604 51.9163 8.56184 51.5184 7.96624C51.1204 7.37064 50.908 6.67041 50.908 5.95409C50.909 4.99391 51.2909 4.07336 51.9699 3.39439C52.6488 2.71542 53.5693 2.33347 54.5295 2.33235ZM38.6821 19.1396C39.3984 19.1396 40.0987 19.352 40.6942 19.75C41.2898 20.148 41.754 20.7136 42.0282 21.3754C42.3023 22.0372 42.374 22.7654 42.2343 23.4679C42.0945 24.1705 41.7496 24.8158 41.2431 25.3223C40.7366 25.8288 40.0912 26.1738 39.3887 26.3135C38.6861 26.4532 37.9579 26.3815 37.2961 26.1074C36.6344 25.8333 36.0687 25.3691 35.6708 24.7735C35.2728 24.1779 35.0604 23.4777 35.0604 22.7614C35.0615 21.8011 35.4434 20.8806 36.1224 20.2016C36.8013 19.5226 37.7219 19.1407 38.6821 19.1396ZM6.98751 38.3486C6.27118 38.3486 5.57092 38.1363 4.97528 37.7384C4.37964 37.3405 3.91538 36.7748 3.64121 36.1131C3.36703 35.4513 3.29526 34.7231 3.43496 34.0205C3.57467 33.3179 3.91958 32.6726 4.42607 32.166C4.93257 31.6595 5.5779 31.3145 6.28046 31.1747C6.98301 31.0349 7.71124 31.1066 8.37305 31.3808C9.03486 31.6549 9.60051 32.1191 9.99849 32.7147C10.3965 33.3103 10.6089 34.0105 10.6089 34.7268C10.6078 35.687 10.226 36.6075 9.54706 37.2865C8.86816 37.9655 7.94766 38.3474 6.98751 38.3486ZM22.8348 13.5907C23.5511 13.5906 24.2513 13.803 24.8469 14.201C25.4425 14.5989 25.9067 15.1646 26.1809 15.8263C26.455 16.4881 26.5268 17.2163 26.387 17.9189C26.2473 18.6214 25.9024 19.2668 25.3959 19.7733C24.8894 20.2798 24.244 20.6248 23.5415 20.7645C22.8389 20.9043 22.1107 20.8326 21.4489 20.5585C20.7871 20.2843 20.2215 19.8201 19.8235 19.2245C19.4255 18.6289 19.2131 17.9287 19.2131 17.2124C19.2142 16.2522 19.5961 15.3317 20.2751 14.6527C20.954 13.9737 21.8746 13.5918 22.8348 13.5907Z" fill="#FEFEFE"/>
</g>
<defs>
<clipPath id="clip0_744_430">
<rect width="60.2955" height="60.2955" fill="white" transform="translate(0.61084 0.44812)"/>
</clipPath>
</defs>
</svg>
