<svg width="256" height="256" viewBox="0 0 256 256" fill="none" xmlns="http://www.w3.org/2000/svg">
<rect width="256" height="256" rx="32" fill="white"/>
<path d="M130.566 46.1484C146.312 46.1484 159.563 51.4491 170.321 62.0504C181.078 72.6517 186.456 85.6695 186.456 101.104C186.456 116.538 181.078 129.556 170.321 140.157C159.563 150.758 146.312 156.059 130.566 156.059H101.802V209.845H69.5303V46.1484H130.566ZM130.566 125.892C137.425 125.892 143.116 123.554 147.637 118.876C152.158 114.044 154.419 108.119 154.419 101.104C154.419 93.9322 152.158 88.008 147.637 83.3309C143.116 78.6539 137.425 76.3154 130.566 76.3154H101.802V125.892H130.566Z" fill="black"/>
</svg>
